Geharha.The.Dark.&.Long.Hair.Monster.2009.(DD5.1).XviD-NvadR

Gehara is 20 minutes of pure old fashioned Japanese giant monster movie bliss.

amazing what director Kiyotaka Taguchi, writer Jun Miura, and 
special effects supervisor Shinji Higuchi (no stranger to this 
genre, having done effects for all three 90's Gamera movies and 
Godzilla, Mothra and King Ghidorah: Giant Monsters All-Out Attack) 
managed to accomplish in a 20-minute short film, capturing what it 
is that so many of us love about these giant rubbersuit, model city, 
Japanese monster movies of old in such a short amount of time in 
ways that even many of the more recent Godzilla movies failed to do so. 

Amazing that the trio also do a wonderful job lovingly spoofing the 
very genre they so clearly love with more success than Minorus Kawasaki 
did with Monster X Strikes Back: Attack the G8 Summit and, again, did 
so with only a 20-minute running time.


-------------- SCREENSHOTS ----------------- 
http://www.postimg.com/41000/photo-40825.jpg
 
http://www.postimg.com/41000/photo-40826.jpg
 
http://www.postimg.com/41000/photo-40827.jpg
 
http://www.postimg.com/41000/photo-40828.jpg
 
http://www.postimg.com/41000/photo-40829.jpg
--------------------------------------------


   General

      Complete name : Geharha.The.Dark.&.Long.Hair.Monster.2009.(DD5.1).XviD-NvadR.avi
      Format : AVI
      Format/Info : Audio Video Interleave
      File size : 500 MiB
      Duration : 20mn 19s
      Overall bit rate : 3 440 Kbps
      Writing application : VirtualDubMod 1.5.10.2 (build 2542/release)
      Writing library : VirtualDubMod build 2542/release

   Video 

      Format : MPEG-4 Visual
      Format profile : AdvancedSimple@L5
      Format settings, BVOP : Yes
      Format settings, QPel : No
      Format settings, GMC : No warppoints
      Format settings, Matrix : Default (H.263)
      Muxing mode : Packed bitstream
      Codec ID : XVID
      Codec ID/Hint : XviD
      Duration : 20mn 19s
      Bit rate : 2 983 Kbps
      Width : 720 pixels
      Height : 480 pixels
      Display aspect ratio : 1.500 (1:1 copy)
      Frame rate : 23.976 fps
      Standard : NTSC
      Resolution : 24 bits
      Colorimetry : 4:2:0
      Scan type : Progressive
      Bits/(Pixel*Frame) : 0.360
      Stream size : 434 MiB (87%)
      Writing library : XviD 1.2.1 (UTC 2008-12-04)

   Audio 
      
      Language : Japanese
      Subtitles : English (Hardcoded)
      Other Subs : None
      Format : AC-3
      Format/Info : Audio Coding 3
      Codec ID : 2000
      Duration : 20mn 19s
      Bit rate mode : Constant
      Bit rate : 448 Kbps
      Channel(s) : 6 channels
      Channel positions : Front: L C R, Surround: L R, LFE
      Sampling rate : 48.0 KHz
      Stream size : 65.1 MiB (13%)
      Alignment : Aligned on interleaves
      Interleave, duration : 42 ms (1.00 video frame)
      Interleave, preload duration : 512 ms

   Source

      Region 2 (Japan) NTSC 720 x 480 (16:9)
      448 kb/s AC-3 48000Hz 6 Channel      
          
     
------------- TORRENT STATS ---------------- 
http://torrent-stats.info/be8a/1108a0bb8.png